<?xml version="1.0" encoding="UTF-8"?>
<svg version="1.1" xmlns="http://www.w3.org/2000/svg" width="225" height="225">
<path d="M0 0 C74.25 0 148.5 0 225 0 C225 74.25 225 148.5 225 225 C150.75 225 76.5 225 0 225 C0 150.75 0 76.5 0 0 Z " fill="#FEFEFE" transform="translate(0,0)"/>
<path d="M0 0 C0.99 0.33 1.98 0.66 3 1 C2.2575 1.78375 1.515 2.5675 0.75 3.375 C-2.31787125 7.01973593 -6 13.08422228 -6 18 C-5.46375 17.01 -4.9275 16.02 -4.375 15 C0.08880151 8.6231407 8.21575924 5.39212038 15 2 C10.86842547 10.75817642 3.77861992 15.56689239 -4 21 C-4.33 21.33 -4.66 21.66 -5 22 C-3.39459341 21.21085079 -1.79071984 20.41858235 -0.1875 19.625 C0.70582031 19.18414062 1.59914062 18.74328125 2.51953125 18.2890625 C5.14556381 16.98133095 5.14556381 16.98133095 8 15 C7.79167633 18.64566422 7.12276115 19.87723885 4.5 22.5 C1.97372336 24.45543528 -0.66611922 25.91019 -3.5 27.375 C-8.07217795 29.79647496 -10.9597566 32.86288447 -14 37 C-13.67 36.67 -13.34 36.34 -13 36 C-3.80315525 27.19039082 -3.80315525 27.19039082 2 26 C-1.0756128 29.67573237 -4.12819618 33.15971845 -7.625 36.4375 C-11.0626825 39.81420365 -13.40403638 43.44010396 -15 48 C-15 48.99 -15 49.98 -15 51 C-14.61908203 50.16855469 -14.61908203 50.16855469 -14.23046875 49.3203125 C-13.71419922 48.23363281 -13.71419922 48.23363281 -13.1875 47.125 C-12.85105469 46.40570313 -12.51460937 45.68640625 -12.16796875 44.9453125 C-11 43 -11 43 -8 41 C-8.30964862 43.41706304 -8.62261115 45.83361887 -8.9375 48.25 C-9.02451172 48.93191406 -9.11152344 49.61382812 -9.20117188 50.31640625 C-9.54999663 52.97780991 -9.89720286 55.59528117 -10.55859375 58.19921875 C-11.08902242 60.36317996 -11.13253235 62.3366911 -11.125 64.5625 C-11.12757812 65.32691406 -11.13015625 66.09132813 -11.1328125 66.87890625 C-11.07907384 69.18998495 -11.07907384 69.18998495 -10 72 C-9.67 67.38 -9.34 62.76 -9 58 C-8.34 58 -7.68 58 -7 58 C-4.41084503 63.91806849 -3.18097134 69.81762501 -2.26635742 76.1875 C-1.46407673 81.1446423 0.03108175 84.08614884 3 88 C2.71125 87.37351562 2.4225 86.74703125 2.125 86.1015625 C1.75375 85.28429687 1.3825 84.46703125 1 83.625 C0.62875 82.81289062 0.2575 82.00078125 -0.125 81.1640625 C-1 79 -1 79 -1 77 C1 77 1 77 2.375 78.36328125 C2.91125 79.00652344 3.4475 79.64976562 4 80.3125 C4.93199219 81.39917969 4.93199219 81.39917969 5.8828125 82.5078125 C7.38060299 84.27089429 8.87507143 86.0368008 10.3671875 87.8046875 C18.05861743 97.1538122 18.05861743 97.1538122 28.97021484 101.15332031 C34.2595407 101.25438275 38.97451187 100.68036508 44 99 C46.18580625 96.58342137 46.99998046 94.62236422 48.03125 91.55078125 C49.54866921 87.55531856 52.46397866 85.27076252 56 83 C56.99 82.67 57.98 82.34 59 82 C57.4185764 88.00940966 54.25350777 92.7660962 51 98 C56.28 98.66 61.56 99.32 67 100 C60.37080037 104.97189973 53.50693015 104.53377441 45.5625 103.4375 C44.386875 103.293125 43.21125 103.14875 42 103 C41.67 103.33 41.34 103.66 41 104 C43.97 105.32 46.94 106.64 50 108 C50 109.32 50 110.64 50 112 C48.02 112 46.04 112 44 112 C44 111.34 44 110.68 44 110 C43.46375 109.9175 42.9275 109.835 42.375 109.75 C40 109 40 109 37.1875 106.9375 C33.46816057 104.67672505 31.27417598 104.65806592 27 105 C27 105.66 27 106.32 27 107 C16.62642369 112.74031891 16.62642369 112.74031891 11 112 C11 110.68 11 109.36 11 108 C14.96 106.68 18.92 105.36 23 104 C16.39286632 100.75058999 10.742688 99.65574463 3.5 99.125 C-6.41300319 98.33920142 -13.20986702 95.50408432 -20 88 C-20 87.34 -20 86.68 -20 86 C-19.30519531 86.28617187 -18.61039063 86.57234375 -17.89453125 86.8671875 C-14.8535735 88.05730592 -11.78867525 89.10263453 -8.6875 90.125 C-7.61886719 90.47820312 -6.55023438 90.83140625 -5.44921875 91.1953125 C-4.64097656 91.46085937 -3.83273438 91.72640625 -3 92 C-4.10214844 91.57267578 -4.10214844 91.57267578 -5.2265625 91.13671875 C-13.473139 87.75678387 -21.32875296 83.49645645 -25.35546875 75.2109375 C-28.24511301 67.73533903 -28.24511301 67.73533903 -27 64 C-26.6596875 64.56847656 -26.319375 65.13695313 -25.96875 65.72265625 C-22.40437906 71.4010025 -18.5313235 76.12558196 -13 80 C-12.34 80 -11.68 80 -11 80 C-11.825 79.54625 -12.65 79.0925 -13.5 78.625 C-20.49174826 73.94730554 -25.07598134 66.29986109 -28.90234375 58.984375 C-30.32495767 56.41253204 -32.07344786 54.21196727 -34 52 C-30.59687262 53.05875074 -27.98646769 54.00902154 -25 56 C-25.33773437 55.38253906 -25.67546875 54.76507813 -26.0234375 54.12890625 C-28.67081822 49.10194344 -30.62441912 44.50945063 -31.640625 38.91015625 C-31.99500801 36.7893619 -31.99500801 36.7893619 -33 34 C-29.63303988 35.05776181 -28.91477773 36.14446213 -27.078125 39.2578125 C-26.45639332 40.54096087 -25.84734738 41.83032007 -25.25 43.125 C-24.93417969 43.78371094 -24.61835937 44.44242188 -24.29296875 45.12109375 C-23.51766255 46.74218853 -22.75734314 48.37043584 -22 50 C-25.51362397 42.53354907 -26.65529128 33.96587383 -24 26 C-23.9314505 24.10529184 -23.91519628 22.2083166 -23.9375 20.3125 C-23.94652344 19.31863281 -23.95554687 18.32476562 -23.96484375 17.30078125 C-23.97644531 16.54152344 -23.98804688 15.78226563 -24 15 C-20.14766248 18.2739705 -20.39897904 21.13245571 -20 26 C-20.04125 24.80375 -20.0825 23.6075 -20.125 22.375 C-19.38193334 14.76161212 -13.55497898 8.81152491 -9 3 C-8.13822049 5.42273863 -7.84453131 6.5929689 -8.77734375 9.03515625 C-9.35162109 10.03869141 -9.35162109 10.03869141 -9.9375 11.0625 C-11.4808296 13.78817702 -12 14.777072 -12 18 C-11.690625 16.88625 -11.38125 15.7725 -11.0625 14.625 C-8.87982014 8.65472862 -4.36995441 4.47072904 0 0 Z " fill="#DD2420" transform="translate(83,59)"/>
<path d="M0 0 C0.66 0 1.32 0 2 0 C2.66 2.97 3.32 5.94 4 9 C4.99 8.67 5.98 8.34 7 8 C7.89316269 13.93609666 7.97040422 19.06975197 7 25 C7.99 24.67 8.98 24.34 10 24 C10 25.32 10 26.64 10 28 C11.65 27.67 13.3 27.34 15 27 C15.44515425 34.12246797 13.98079732 39.81886604 9.4375 45.4375 C7 48 7 48 5 49 C4.67 49.99 4.34 50.98 4 52 C5.98 52 7.96 52 10 52 C10.876105 57.54866503 8.72851804 61.17227203 5.86328125 65.7265625 C3.02770688 69.18631991 0.10677732 70.32944651 -4 72 C-4.33 72.66 -4.66 73.32 -5 74 C-0.545 73.01 -0.545 73.01 4 72 C0.535 72.495 0.535 72.495 -3 73 C0.53583618 70.09556314 0.53583618 70.09556314 3.125 69.5625 C3.74375 69.376875 4.3625 69.19125 5 69 C5.6837045 67.67532254 6.34964186 66.34136367 7 65 C9.0625 63.87109375 9.0625 63.87109375 11 63 C9.83142327 67.79731501 8.9096968 71.17116514 5.1875 74.5625 C1.80931272 76.08599622 -0.34092143 76.34848367 -4 76 C-4 76.99 -4 77.98 -4 79 C-3.01 79 -2.02 79 -1 79 C-2.40091992 82.38555647 -3.79669811 84.18190974 -7 86 C-10.625 86.8125 -10.625 86.8125 -14 87 C-14.66 86.34 -15.32 85.68 -16 85 C-13.03 84.505 -13.03 84.505 -10 84 C-15.36891879 84.49869404 -20.69235173 85.02227532 -26 86 C-22.86924422 79.08624765 -18.92411835 72.79809606 -14 67 C-13.34 67 -12.68 67 -12 67 C-12.33990833 72.37992836 -12.68557793 76.53273547 -16 81 C-13.36 80.67 -10.72 80.34 -8 80 C-8.66 78.35 -9.32 76.7 -10 75 C-10 76.65 -10 78.3 -10 80 C-11.32 79.67 -12.64 79.34 -14 79 C-13.505 78.0925 -13.01 77.185 -12.5 76.25 C-10.88502472 72.75088689 -10.97995066 70.37449397 -11.03515625 66.58984375 C-11.1030975 59.99954253 -10.70956889 53.55084135 -10 47 C-9.34 47 -8.68 47 -8 47 C-6.375 49 -6.375 49 -5 51 C-3.02 50.505 -3.02 50.505 -1 50 C-1.76279268 46.81035932 -1.76279268 46.81035932 -4.5625 44.9375 C-8.02773012 40.76145344 -7.4563717 37.22292059 -7 32 C-5.515 32.495 -5.515 32.495 -4 33 C-3.34 36.3 -2.68 39.6 -2 43 C-3.14077657 39.57767028 -3.09815117 36.91326783 -3.0625 33.3125 C-3.05347656 32.13300781 -3.04445312 30.95351562 -3.03515625 29.73828125 C-3.02355469 28.83464844 -3.01195312 27.93101563 -3 27 C0.82932166 30.33916849 0.82932166 30.33916849 1.609375 33.359375 C1.65578125 34.14828125 1.7021875 34.9371875 1.75 35.75 C1.80671875 36.54921875 1.8634375 37.3484375 1.921875 38.171875 C1.94765625 38.77515625 1.9734375 39.3784375 2 40 C2 37.16354824 1.63264227 34.82997892 1.0625 32.0625 C0.88847656 31.20785156 0.71445313 30.35320312 0.53515625 29.47265625 C0.06536341 27.3020076 -0.44615593 25.15051165 -1 23 C-1.33 23.66 -1.66 24.32 -2 25 C-10.95859592 22.81777792 -10.95859592 22.81777792 -13.5625 18.8125 C-14.2740625 17.4203125 -14.2740625 17.4203125 -15 16 C-14.01 15.67 -13.02 15.34 -12 15 C-12 13.35 -12 11.7 -12 10 C-3.16171274 13.94678861 -3.16171274 13.94678861 -1 18 C-1 18.66 -1 19.32 -1 20 C-2.32 19.67 -3.64 19.34 -5 19 C-3.35 19.99 -1.7 20.98 0 22 C-0.33 21.01 -0.66 20.02 -1 19 C-2.89900175 12.27210808 -2.18442698 6.55328093 0 0 Z " fill="#204EB6" transform="translate(161,71)"/>
<path d="M0 0 C0.99 0.33 1.98 0.66 3 1 C4.16796875 3.8359375 4.16796875 3.8359375 5.1875 7.375 C5.53167969 8.53773437 5.87585938 9.70046875 6.23046875 10.8984375 C7 14 7 14 7 17 C13.6 17 20.2 17 27 17 C27 17.66 27 18.32 27 19 C25.171875 20.40234375 25.171875 20.40234375 22.75 21.9375 C20.36876419 23.4588451 18.05842444 24.95450039 15.828125 26.69140625 C14 28 14 28 12 28 C12.54140625 29.80597656 12.54140625 29.80597656 13.09375 31.6484375 C13.5626424 33.22391596 14.03138463 34.79943912 14.5 36.375 C14.73847656 37.1690625 14.97695312 37.963125 15.22265625 38.78125 C15.44824219 39.54179688 15.67382812 40.30234375 15.90625 41.0859375 C16.11572266 41.7876709 16.32519531 42.4894043 16.54101562 43.21240234 C17 45 17 45 17 47 C12.70716114 45.04238598 9.17656174 42.20747608 5.4375 39.36328125 C3.18008336 37.83116418 3.18008336 37.83116418 1.0390625 38.0390625 C-1.80240956 39.37814703 -4.13113163 41.15680813 -6.625 43.0625 C-11.78734622 47 -11.78734622 47 -14 47 C-12.66666667 41 -11.33333333 35 -10 29 C-10.9384375 28.28972656 -11.876875 27.57945313 -12.84375 26.84765625 C-14.06262553 25.91943565 -15.28136874 24.99104128 -16.5 24.0625 C-17.12003906 23.59392578 -17.74007812 23.12535156 -18.37890625 22.64257812 C-19.93766786 21.45209536 -21.47109164 20.22858708 -23 19 C-23 18.67 -23 18.34 -23 18 C-17.06 18 -11.12 18 -5 18 C-4.54625 16.329375 -4.0925 14.65875 -3.625 12.9375 C-2.44685746 8.61578281 -1.24320584 4.30340483 0 0 Z " fill="#F4BF13" transform="translate(111,88)"/>
<path d="M0 0 C0.495 0.99 0.495 0.99 1 2 C-0.24607404 4.45679846 -1.52595056 6.76770977 -2.9375 9.125 C-4.9484375 12.528125 -4.9484375 12.528125 -7 16 C-1.72 16.66 3.56 17.32 9 18 C2.37080037 22.97189973 -4.49306985 22.53377441 -12.4375 21.4375 C-14.2009375 21.2209375 -14.2009375 21.2209375 -16 21 C-16.495 21.495 -16.495 21.495 -17 22 C-12.545 23.98 -12.545 23.98 -8 26 C-8 27.32 -8 28.64 -8 30 C-9.98 30 -11.96 30 -14 30 C-14 29.34 -14 28.68 -14 28 C-14.53625 27.9175 -15.0725 27.835 -15.625 27.75 C-18 27 -18 27 -20.8125 24.9375 C-24.53183943 22.67672505 -26.72582402 22.65806592 -31 23 C-31 23.66 -31 24.32 -31 25 C-41.37357631 30.74031891 -41.37357631 30.74031891 -47 30 C-47 28.68 -47 27.36 -47 26 C-43.04 24.68 -39.08 23.36 -35 22 C-41.60713368 18.75058999 -47.257312 17.65574463 -54.5 17.125 C-64.41300319 16.33920142 -71.20986702 13.50408432 -78 6 C-78 5.34 -78 4.68 -78 4 C-77.33742187 4.27457031 -76.67484375 4.54914063 -75.9921875 4.83203125 C-72.40523128 6.23216168 -68.78248405 7.4877085 -65.125 8.6875 C-64.44308594 8.92533203 -63.76117188 9.16316406 -63.05859375 9.40820312 C-57.80974735 11.11282848 -53.14143182 11.57071591 -48 9 C-47.67 8.34 -47.34 7.68 -47 7 C-46.59910156 7.44730469 -46.19820312 7.89460937 -45.78515625 8.35546875 C-38.649977 15.97202288 -38.649977 15.97202288 -29.01660156 19.17089844 C-23.73916636 19.26710779 -19.01260088 18.67605599 -14 17 C-11.81355869 14.58271927 -11.00023373 12.62461692 -9.97265625 9.55078125 C-8.23633578 4.99729825 -4.27872907 2.13936453 0 0 Z " fill="#DE211D" transform="translate(141,141)"/>
<path d="M0 0 C0.66 0 1.32 0 2 0 C2.680625 0.99 2.680625 0.99 3.375 2 C3.91125 2.66 4.4475 3.32 5 4 C6.32 4 7.64 4 9 4 C9 4.99 9 5.98 9 7 C8.34 7 7.68 7 7 7 C6.67 10.96 6.34 14.92 6 19 C6.73287817 15.33560916 7.39987636 11.68647378 8 8 C8.66 8 9.32 8 10 8 C10.33 6.68 10.66 5.36 11 4 C11.66 4.33 12.32 4.66 13 5 C13.125 7.375 13.125 7.375 13 10 C12.34 10.66 11.68 11.32 11 12 C11.20625 12.598125 11.4125 13.19625 11.625 13.8125 C12 16 12 16 10.0625 18.75 C9.381875 19.4925 8.70125 20.235 8 21 C8.95421808 19.85073734 9.91352045 18.70569459 10.875 17.5625 C11.40867188 16.92441406 11.94234375 16.28632813 12.4921875 15.62890625 C14 14 14 14 16 13 C15.67 12.01 15.34 11.02 15 10 C16.65 8.68 18.3 7.36 20 6 C19.62732992 11.96272134 18.0387536 16.48956715 14 21 C11.93728213 22.31687638 9.93989787 23.29861251 7.671875 24.2109375 C5.80076851 24.8834726 5.80076851 24.8834726 5 27 C7.97 26.34 10.94 25.68 14 25 C11.69 25.33 9.38 25.66 7 26 C10.53583618 23.09556314 10.53583618 23.09556314 13.125 22.5625 C13.74375 22.376875 14.3625 22.19125 15 22 C15.6837045 20.67532254 16.34964186 19.34136367 17 18 C19.0625 16.87109375 19.0625 16.87109375 21 16 C19.83142327 20.79731501 18.9096968 24.17116514 15.1875 27.5625 C11.80931272 29.08599622 9.65907857 29.34848367 6 29 C6 29.99 6 30.98 6 32 C6.99 32 7.98 32 9 32 C7.59908008 35.38555647 6.20330189 37.18190974 3 39 C-0.625 39.8125 -0.625 39.8125 -4 40 C-4.66 39.34 -5.32 38.68 -6 38 C-3.03 37.505 -3.03 37.505 0 37 C-5.36891879 37.49869404 -10.69235173 38.02227532 -16 39 C-12.86924422 32.08624765 -8.92411835 25.79809606 -4 20 C-3.34 20 -2.68 20 -2 20 C-2.33990833 25.37992836 -2.68557793 29.53273547 -6 34 C-3.36 33.67 -0.72 33.34 2 33 C1.34 31.35 0.68 29.7 0 28 C0 29.65 0 31.3 0 33 C-1.32 32.67 -2.64 32.34 -4 32 C-3.505 31.0925 -3.01 30.185 -2.5 29.25 C-0.88502472 25.75088689 -0.97995066 23.37449397 -1.03515625 19.58984375 C-1.1030975 12.99954253 -0.70956889 6.55084135 0 0 Z " fill="#1645B0" transform="translate(151,118)"/>
<path d="M0 0 C3.85322864 0.26272013 5.56137153 0.57291438 8.375 3.3125 C10 6 10 6 10 10 C10.598125 10.061875 11.19625 10.12375 11.8125 10.1875 C14.95302542 11.35398087 15.58160876 13.02813263 17 16 C17.99087769 19.38549877 18.11739094 21.64782719 17 25 C13.88626628 23.50079488 10.87771795 21.91847864 8 20 C8 18 8 18 9 17 C8.01 17 7.02 17 6 17 C6 18.32 6 19.64 6 21 C5.01 20.67 4.02 20.34 3 20 C2.67 19.34 2.34 18.68 2 18 C0.4840625 18.185625 0.4840625 18.185625 -1.0625 18.375 C-6.18731515 17.88692237 -8.6001052 15.73058366 -12 12 C-12 11.67 -12 11.34 -12 11 C-6.25 10.875 -6.25 10.875 -4 12 C-4.680625 11.2575 -5.36125 10.515 -6.0625 9.75 C-7.0215625 8.38875 -7.0215625 8.38875 -8 7 C-7.67 5.68 -7.34 4.36 -7 3 C-4.36 3.99 -1.72 4.98 1 6 C0.67 4.02 0.34 2.04 0 0 Z " fill="#819BCF" transform="translate(140,59)"/>
<path d="M0 0 C0.66 0 1.32 0 2 0 C3.89073553 7.12547782 4.21687077 13.58851561 4.0625 20.9375 C4.02817313 22.98821263 3.99800825 25.03900054 3.97265625 27.08984375 C3.95468994 27.98566162 3.93672363 28.88147949 3.91821289 29.80444336 C3.85011245 32.04489843 3.85011245 32.04489843 5 34 C4.01 34.99 3.02 35.98 2 37 C1.80083984 35.98679687 1.80083984 35.98679687 1.59765625 34.953125 C1.42105469 34.06109375 1.24445313 33.1690625 1.0625 32.25 C0.88847656 31.36828125 0.71445313 30.4865625 0.53515625 29.578125 C0.07631512 27.36764947 -0.43336074 25.18487932 -1 23 C-1.33 23.66 -1.66 24.32 -2 25 C-10.95859592 22.81777792 -10.95859592 22.81777792 -13.5625 18.8125 C-14.2740625 17.4203125 -14.2740625 17.4203125 -15 16 C-14.01 15.67 -13.02 15.34 -12 15 C-12 13.35 -12 11.7 -12 10 C-3.16171274 13.94678861 -3.16171274 13.94678861 -1 18 C-1 18.66 -1 19.32 -1 20 C-2.32 19.67 -3.64 19.34 -5 19 C-3.35 19.99 -1.7 20.98 0 22 C-0.33 21.01 -0.66 20.02 -1 19 C-2.89900175 12.27210808 -2.18442698 6.55328093 0 0 Z " fill="#5172BF" transform="translate(161,71)"/>
<path d="M0 0 C0.33 0.66 0.66 1.32 1 2 C-0.24607404 4.45679846 -1.52595056 6.76770977 -2.9375 9.125 C-4.278125 11.39375 -5.61875 13.6625 -7 16 C-1.72 16.66 3.56 17.32 9 18 C2.48438633 22.88671025 -4.22789157 22.51905103 -12.0625 21.5625 C-13.361875 21.376875 -14.66125 21.19125 -16 21 C-17.01900391 20.85691406 -17.01900391 20.85691406 -18.05859375 20.7109375 C-19.70642533 20.47884854 -21.35332251 20.24014047 -23 20 C-22.34 19.34 -21.68 18.68 -21 18 C-19.906875 18 -18.81375 18 -17.6875 18 C-13.94680741 17.42937888 -13.94680741 17.42937888 -12.67578125 14.92578125 C-11.8777726 13.15213412 -11.09436546 11.37185911 -10.32421875 9.5859375 C-8.06721471 5.17845468 -4.39629921 2.1981496 0 0 Z " fill="#6882C4" transform="translate(141,141)"/>
<path d="M0 0 C0.66 0 1.32 0 2 0 C1.66009167 5.37992836 1.31442207 9.53273547 -2 14 C0.64 13.67 3.28 13.34 6 13 C5.814375 12.38125 5.62875 11.7625 5.4375 11.125 C5 9 5 9 6 7 C7.32 7.33 8.64 7.66 10 8 C10 9.32 10 10.64 10 12 C10.99 12 11.98 12 13 12 C11.59908008 15.38555647 10.20330189 17.18190974 7 19 C3.375 19.8125 3.375 19.8125 0 20 C-0.66 19.34 -1.32 18.68 -2 18 C-0.02 17.67 1.96 17.34 4 17 C-1.36891879 17.49869404 -6.69235173 18.02227532 -12 19 C-8.86924422 12.08624765 -4.92411835 5.79809606 0 0 Z " fill="#325AB7" transform="translate(147,138)"/>
<path d="M0 0 C3.30712464 1.05624025 4.05319446 2.09056526 5.8515625 5.15234375 C6.45501886 6.40822114 7.04582773 7.67024032 7.625 8.9375 C10.60454874 15.42291626 10.60454874 15.42291626 15 21 C15.125 23.4375 15.125 23.4375 15 26 C15 29.69418201 16.28179295 31.77836178 18 35 C17.34 35 16.68 35 16 35 C14.4921875 33.03125 14.4921875 33.03125 12.875 30.5 C12.33617187 29.6646875 11.79734375 28.829375 11.2421875 27.96875 C10.83226562 27.3190625 10.42234375 26.669375 10 26 C9.34 26.66 8.68 27.32 8 28 C7.34 28 6.68 28 6 28 C4.61558 26.03501678 3.28796166 24.02951535 2 22 C1.01133494 20.65824027 0.0161846 19.32103998 -1 18 C2.40312738 19.05875074 5.01353231 20.00902154 8 22 C7.66226563 21.38253906 7.32453125 20.76507813 6.9765625 20.12890625 C4.32918178 15.10194344 2.37558088 10.50945063 1.359375 4.91015625 C1.00499199 2.7893619 1.00499199 2.7893619 0 0 Z " fill="#DC231F" transform="translate(50,93)"/>
<path d="M0 0 C0.99 0.33 1.98 0.66 3 1 C3.10957031 1.69867188 3.21914062 2.39734375 3.33203125 3.1171875 C3.49058594 4.02726562 3.64914063 4.93734375 3.8125 5.875 C3.96332031 6.77992187 4.11414063 7.68484375 4.26953125 8.6171875 C4.83051301 11.34412478 4.83051301 11.34412478 8 13 C9.74627478 15.61941217 10.38722388 17.03824877 11 20 C12.98 20 14.96 20 17 20 C15.625 22.5 15.625 22.5 14 25 C13.34 25 12.68 25 12 25 C12 25.66 12 26.32 12 27 C12.66 27.33 13.32 27.66 14 28 C11 31 8 34 5 37 C4.34 36.67 3.68 36.34 3 36 C3.825 35.236875 4.65 34.47375 5.5 33.6875 C8.34055197 31.24565858 8.34055197 31.24565858 8 28 C7.34 28.33 6.68 28.66 6 29 C6.309375 28.443125 6.61875 27.88625 6.9375 27.3125 C8.05761821 24.87459567 8.56037364 22.63775814 9 20 C7.84188612 21.05270463 7.84188612 21.05270463 7 23 C6.34 23 5.68 23 5 23 C5.03480469 23.61488281 5.06960937 24.22976562 5.10546875 24.86328125 C5.13253906 25.67152344 5.15960938 26.47976562 5.1875 27.3125 C5.22230469 28.11300781 5.25710937 28.91351563 5.29296875 29.73828125 C4.93801608 32.47851584 4.10633718 33.29171079 2 35 C2.60825035 30.65535464 3.26167392 26.32448133 4 22 C4.66 22 5.32 22 6 22 C5.73155702 16.6719408 5.73155702 16.6719408 2.4375 12.6875 C-0.39227224 9.56749471 -0.33528088 8.74249603 -0.3125 4.6875 C-0.23259126 3.12357176 -0.1363128 1.56002428 0 0 Z " fill="#A9BCDD" transform="translate(154,103)"/>
<path d="M0 0 C0.66 0 1.32 0 2 0 C2.45375 0.66 2.9075 1.32 3.375 2 C3.91125 2.66 4.4475 3.32 5 4 C6.32 4 7.64 4 9 4 C9 4.99 9 5.98 9 7 C7.68 7.33 6.36 7.66 5 8 C5.03480469 9.13179687 5.06960937 10.26359375 5.10546875 11.4296875 C5.13360336 12.91144353 5.16090387 14.39321556 5.1875 15.875 C5.22520508 16.99455078 5.22520508 16.99455078 5.26367188 18.13671875 C5.29296875 20.3046875 5.29296875 20.3046875 5 24 C4.01 24.66 3.02 25.32 2 26 C1.01 25.34 0.02 24.68 -1 24 C-1.328125 21.34765625 -1.328125 21.34765625 -1.25 18.0625 C-1.22421875 16.90492188 -1.1984375 15.74734375 -1.171875 14.5546875 C-0.93638461 9.68431814 -0.54376108 4.84529961 0 0 Z " fill="#88A2D1" transform="translate(151,118)"/>
<path d="M0 0 C2.92761527 0.32529059 5.32615294 0.59569177 7.875 2.125 C9.611916 5.01986 9.18630572 7.70859897 9 11 C8.34 10.01 7.68 9.02 7 8 C6.67 7.67 6.34 7.34 6 7 C5.67 8.65 5.34 10.3 5 12 C-0.03985731 11.55530671 -2.37634988 9.28656638 -6 6 C-2.61831569 9.68006822 0.42521756 11.9785845 5 14 C1.92677456 14.91058531 -0.80097361 15.08886184 -4 15 C-4 14.01 -4 13.02 -4 12 C-4.680625 11.195625 -5.36125 10.39125 -6.0625 9.5625 C-6.701875 8.716875 -7.34125 7.87125 -8 7 C-7.67 5.68 -7.34 4.36 -7 3 C-4.36 3.99 -1.72 4.98 1 6 C0.67 4.02 0.34 2.04 0 0 Z " fill="#1D4CB4" transform="translate(140,59)"/>
<path d="M0 0 C0.33 0 0.66 0 1 0 C1.89316269 5.93609666 1.97040422 11.06975197 1 17 C1.99 16.67 2.98 16.34 4 16 C4 17.32 4 18.64 4 20 C4.99 20.33 5.98 20.66 7 21 C4.36 23.31 1.72 25.62 -1 28 C-3.02789118 23.94421765 -3.24682223 22.26484474 -3.1875 17.875 C-3.18105469 16.82054688 -3.17460937 15.76609375 -3.16796875 14.6796875 C-3 12 -3 12 -2 10 C-1.69208131 7.66922657 -1.49104726 5.33758104 -1.28125 2.99609375 C-1 1 -1 1 0 0 Z " fill="#6180BF" transform="translate(167,79)"/>
<path d="M0 0 C3.82932166 3.33916849 3.82932166 3.33916849 4.609375 6.359375 C4.65578125 7.14828125 4.7021875 7.9371875 4.75 8.75 C4.80671875 9.54921875 4.8634375 10.3484375 4.921875 11.171875 C4.94765625 11.77515625 4.9734375 12.3784375 5 13 C5.66 12.34 6.32 11.68 7 11 C7.99 10.67 8.98 10.34 10 10 C11.42857119 8.59894424 11.42857119 8.59894424 12.6875 6.9375 C13.450625 5.968125 14.21375 4.99875 15 4 C15 7.58050122 14.16840155 8.51032702 12.125 11.375 C9.90725457 14.4927001 8.31047496 17.39937464 7 21 C6.34 21 5.68 21 5 21 C4.67 21.66 4.34 22.32 4 23 C3.71125 22.0925 3.4225 21.185 3.125 20.25 C2.18056335 17.16561504 2.18056335 17.16561504 0.9375 15.21875 C-0.35449731 12.16102304 -0.19106474 9.55323684 -0.125 6.25 C-0.09792969 4.49429688 -0.09792969 4.49429688 -0.0703125 2.703125 C-0.04710937 1.81109375 -0.02390625 0.9190625 0 0 Z " fill="#7F98CC" transform="translate(158,98)"/>
<path d="M0 0 C2.79416501 1.94376696 3.03418646 3.17972308 3.68359375 6.59375 C4.10681971 11.22696055 4.11171266 15.85129612 4.0625 20.5 C4.05798828 21.32242188 4.05347656 22.14484375 4.04882812 22.9921875 C4.03718489 24.99482396 4.01925556 26.99742227 4 29 C2.68 29 1.36 29 0 29 C-1.41880263 26.16239474 -1.1320472 23.72317025 -1.125 20.5625 C-1.12757812 19.40878906 -1.13015625 18.25507812 -1.1328125 17.06640625 C-1 14 -1 14 0 11 C0.0685495 9.10529184 0.08480372 7.2083166 0.0625 5.3125 C0.05347656 4.31863281 0.04445312 3.32476562 0.03515625 2.30078125 C0.02355469 1.54152344 0.01195312 0.78226562 0 0 Z " fill="#DC1E1A" transform="translate(59,74)"/>
<path d="M0 0 C0 4.25028147 -1.94073344 5.7283785 -4.72265625 8.7890625 C-8.72964892 12.67921319 -13.11675454 16.27067013 -18 19 C-18.99 18.67 -19.98 18.34 -21 18 C-16.54417102 8.83372325 -9.64474339 5.48839657 -1 1 C-0.67 0.67 -0.34 0.34 0 0 Z " fill="#DD1F1B" transform="translate(97,61)"/>
<path d="M0 0 C1 2 1 2 0.3984375 3.83984375 C-1.72532877 8.192754 -3.25667448 11.19301885 -8 13 C-12.13252955 13.35170464 -15.9380687 12.7737012 -20 12 C-20 13.65 -20 15.3 -20 17 C-21.32 16.67 -22.64 16.34 -24 16 C-22.875 13.0625 -22.875 13.0625 -21 10 C-17.8125 9.125 -17.8125 9.125 -15 9 C-15 9.66 -15 10.32 -15 11 C-12.03 10.34 -9.06 9.68 -6 9 C-8.31 9.33 -10.62 9.66 -13 10 C-9.46416382 7.09556314 -9.46416382 7.09556314 -6.875 6.5625 C-4.8041234 6.18024259 -4.8041234 6.18024259 -3.9375 4.0625 C-3.628125 3.381875 -3.31875 2.70125 -3 2 C-2.01 1.34 -1.02 0.68 0 0 Z " fill="#1C4AB1" transform="translate(171,134)"/>
<path d="M0 0 C2.32028033 0.95401048 4.61294212 1.97763551 6.875 3.0625 C8.02742188 3.61035156 9.17984375 4.15820312 10.3671875 4.72265625 C11.67042969 5.35494141 11.67042969 5.35494141 13 6 C13 7.32 13 8.64 13 10 C11.02 10 9.04 10 7 10 C7 9.34 7 8.68 7 8 C6.46375 7.9175 5.9275 7.835 5.375 7.75 C2.17831198 6.74051957 -0.21997603 4.85334931 -3 3 C-4.32676508 2.64141484 -5.65835921 2.2981424 -7 2 C-7.33 1.34 -7.66 0.68 -8 0 C-5.0437143 -1.47814285 -3.19499678 -0.72888224 0 0 Z " fill="#DA302D" transform="translate(120,161)"/>
<path d="M0 0 C0.61328125 1.78515625 0.61328125 1.78515625 1 4 C0.02920549 5.841162 -0.9460099 7.68020357 -1.94921875 9.50390625 C-3.67165987 13.59550431 -4.00934462 17.85770473 -4.5078125 22.2421875 C-5 25 -5 25 -7 27 C-6.67 23.37 -6.34 19.74 -6 16 C-6.66 16.33 -7.32 16.66 -8 17 C-8.65555119 19.52733235 -8.65555119 19.52733235 -9 22 C-9.33 22 -9.66 22 -10 22 C-10.61156721 15.08929048 -9.25751822 11.86217159 -5 6.5 C-4.52304688 5.86835937 -4.04609375 5.23671875 -3.5546875 4.5859375 C-2.38676737 3.04428293 -1.19568184 1.52022405 0 0 Z " fill="#E15E5D" transform="translate(74,62)"/>
<path d="M0 0 C0.69609375 0.29003906 1.3921875 0.58007812 2.109375 0.87890625 C6.15405191 2.447585 10.30065678 3.6515393 14.453125 4.90234375 C15.71382812 5.44568359 15.71382812 5.44568359 17 6 C18 9 18 9 17 12 C13.12208721 11.43818225 10.59084674 10.34625496 7.375 8.125 C6.61960937 7.61195313 5.86421875 7.09890625 5.0859375 6.5703125 C3.19540144 5.14709996 1.54021652 3.79528422 0 2 C0 1.34 0 0.68 0 0 Z " fill="#DE231E" transform="translate(63,145)"/>
<path d="M0 0 C3.80383334 1.26794445 4.24082925 2.48165849 6 6 C6.99087769 9.38549877 7.11739094 11.64782719 6 15 C2.88626628 13.50079488 -0.12228205 11.91847864 -3 10 C-3 9.34 -3 8.68 -3 8 C-2.34 8 -1.68 8 -1 8 C0.05270463 5.36893239 0.05270463 5.36893239 0 4 C0 2.68 0 1.36 0 0 Z " fill="#2954B3" transform="translate(151,69)"/>
<path d="M0 0 C0.99 0.33 1.98 0.66 3 1 C3 1.99 3 2.98 3 4 C-7.37357631 9.74031891 -7.37357631 9.74031891 -13 9 C-13 7.68 -13 6.36 -13 5 C-12.14535156 4.72285156 -11.29070312 4.44570312 -10.41015625 4.16015625 C-9.30542969 3.79792969 -8.20070313 3.43570313 -7.0625 3.0625 C-5.96035156 2.70285156 -4.85820313 2.34320313 -3.72265625 1.97265625 C-1.11876525 1.26143332 -1.11876525 1.26143332 0 0 Z " fill="#3A5FB9" transform="translate(107,162)"/>
<path d="M0 0 C1.49348318 2.98696636 0.68553973 5.29836912 0.1875 8.5625 C0.01605469 9.73941406 -0.15539062 10.91632813 -0.33203125 12.12890625 C-0.66267578 13.55009766 -0.66267578 13.55009766 -1 15 C-3 16 -3 16 -5 17 C-5.33 17.99 -5.66 18.98 -6 20 C-7.97902968 16.04194064 -6.16843796 11.08953286 -5 7 C-3.54288852 4.34077155 -1.969681 2.33251697 0 0 Z " fill="#DD2824" transform="translate(74,100)"/>
<path d="M0 0 C0.33 0.66 0.66 1.32 1 2 C-0.24493748 4.28974316 -1.52641528 6.44190034 -2.9375 8.625 C-3.32357422 9.23601562 -3.70964844 9.84703125 -4.10742188 10.4765625 C-5.06446326 11.9889242 -6.03132811 13.49506117 -7 15 C-7.33 14.01 -7.66 13.02 -8 12 C-8.33 12.33 -8.66 12.66 -9 13 C-9.66 13 -10.32 13 -11 13 C-10.40369649 9.73829163 -9.35630233 7.86775002 -7.1875 5.375 C-6.68605469 4.78460938 -6.18460938 4.19421875 -5.66796875 3.5859375 C-3.89506213 1.90022301 -2.23019761 0.97722325 0 0 Z " fill="#1847B3" transform="translate(141,141)"/>
<path d="M0 0 C0.66 0 1.32 0 2 0 C4.26171617 4.39039021 3.8253317 7.21307617 3 12 C2.96296763 14.33303944 2.95239087 16.66715242 3 19 C1.68 19 0.36 19 -1 19 C-0.67 12.73 -0.34 6.46 0 0 Z " fill="#0F43B5" transform="translate(151,118)"/>
<path d="M0 0 C0.66 0.33 1.32 0.66 2 1 C-2.62 5.62 -7.24 10.24 -12 15 C-12.66 14.67 -13.32 14.34 -14 14 C-12.64527694 8.41176736 -8.41886827 5.30998246 -4 2 C-1.8671875 0.73046875 -1.8671875 0.73046875 0 0 Z " fill="#DA201C" transform="translate(83,85)"/>
<path d="M0 0 C0.66 0.66 1.32 1.32 2 2 C-0.31 5.63 -2.62 9.26 -5 13 C-3.515 12.67 -2.03 12.34 -0.5 12 C4.11577315 11.06632509 8.30300169 10.8260371 13 11 C10 13 10 13 7.875 13.5 C7.25625 13.665 6.6375 13.83 6 14 C5.67 14.66 5.34 15.32 5 16 C0.71 15.67 -3.58 15.34 -8 15 C-2.71428571 4.28571429 -2.71428571 4.28571429 0 0 Z " fill="#BBCAE0" transform="translate(141,143)"/>
<path d="M0 0 C0.66 0 1.32 0 2 0 C3.6277833 6.14778871 4.20190089 11.64012196 4 18 C2.79371992 15.66785852 1.8345262 13.50357861 1 11 C0.01 11.99 -0.98 12.98 -2 14 C-2.21192221 8.80790596 -1.5912689 4.873261 0 0 Z " fill="#1748B2" transform="translate(161,71)"/>
<path d="M0 0 C3.89051128 1.12392548 6.27180738 2.03457324 9 5 C9.78375 5.391875 10.5675 5.78375 11.375 6.1875 C15.07486207 8.74216667 16.83679419 12.1246398 19 16 C18.34 16.33 17.68 16.66 17 17 C15.02 14.03 13.04 11.06 11 8 C10.34 8.66 9.68 9.32 9 10 C8.34 10 7.68 10 7 10 C5.61558 8.03501678 4.28796166 6.02951535 3 4 C2.01133494 2.65824027 1.0161846 1.32103998 0 0 Z " fill="#DF5E5B" transform="translate(49,111)"/>
<path d="M0 0 C0 3.669668 -1.2519677 4.60313302 -3.5625 7.28125 C-8.98573182 13.76554891 -10.96799054 19.62069929 -12 28 C-12.33 28 -12.66 28 -13 28 C-13.67360894 19.99153812 -12.9456509 14.46106412 -8 8 C-5.4565372 5.18855683 -2.80250364 2.55215592 0 0 Z " fill="#F4E4E0" transform="translate(80,90)"/>
<path d="M0 0 C3.86913378 3.28799907 3.86913378 3.28799907 4.4609375 6.5078125 C4.43257812 7.37148437 4.40421875 8.23515625 4.375 9.125 C4.36210937 9.99382812 4.34921875 10.86265625 4.3359375 11.7578125 C4 14 4 14 2 16 C-0.42130331 12.36804504 -0.21022785 10.61650652 -0.125 6.3125 C-0.09792969 4.54326172 -0.09792969 4.54326172 -0.0703125 2.73828125 C-0.04710937 1.83464844 -0.02390625 0.93101563 0 0 Z " fill="#0D3EB1" transform="translate(158,98)"/>
<path d="M0 0 C0.33 0 0.66 0 1 0 C1 1.65 1 3.3 1 5 C3.97 5.33 6.94 5.66 10 6 C7.14723863 8.93200474 4.34920216 11.64315404 1 14 C0.06380187 10.84493858 -0.1057123 8.03413498 -0.0625 4.75 C-0.05347656 3.85796875 -0.04445312 2.9659375 -0.03515625 2.046875 C-0.02355469 1.37140625 -0.01195312 0.6959375 0 0 Z " fill="#98AED6" transform="translate(164,93)"/>
<path d="M0 0 C0.66 0.33 1.32 0.66 2 1 C1.24902724 8.50972763 1.24902724 8.50972763 0 10.96875 C-1.14586564 13.29628957 -1.39780506 15.17512396 -1.625 17.75 C-1.69976562 18.54921875 -1.77453125 19.3484375 -1.8515625 20.171875 C-1.90054688 20.77515625 -1.94953125 21.3784375 -2 22 C-2.33 22 -2.66 22 -3 22 C-3.0543965 19.62468606 -3.09385864 17.25064117 -3.125 14.875 C-3.14175781 14.20984375 -3.15851562 13.5446875 -3.17578125 12.859375 C-3.21845746 8.50640149 -2.65233352 5.02679799 -1 1 C-0.67 0.67 -0.34 0.34 0 0 Z " fill="#DC130E" transform="translate(67,77)"/>
<path d="M0 0 C0.99 0.33 1.98 0.66 3 1 C3.12117187 1.68707031 3.24234375 2.37414062 3.3671875 3.08203125 C3.61855469 4.43361328 3.61855469 4.43361328 3.875 5.8125 C4.03742188 6.70582031 4.19984375 7.59914063 4.3671875 8.51953125 C4.91188449 11.22727846 4.91188449 11.22727846 7 14 C6.67 14.99 6.34 15.98 6 17 C2.80542302 14.12868379 0.24832621 11.67741918 -0.3984375 7.30859375 C-0.37743232 4.84748702 -0.26578002 2.44616058 0 0 Z " fill="#2752B3" transform="translate(154,103)"/>
<path d="M0 0 C2 2 2 2 2.0625 5.6875 C2.04316406 6.39261719 2.02382812 7.09773438 2.00390625 7.82421875 C1.99827918 10.95849435 2.48529598 13.91177588 3 17 C-0.65316671 15.75023244 -1.78065836 15.32901247 -4 12 C-1 13.5 -1 13.5 2 15 C-0.98626053 9.81916829 -0.98626053 9.81916829 -6 7 C-6.99 7.495 -6.99 7.495 -8 8 C-8 7.01 -8 6.02 -8 5 C-5.625 4.875 -5.625 4.875 -3 5 C-2.34 5.66 -1.68 6.32 -1 7 C-0.67 4.69 -0.34 2.38 0 0 Z " fill="#BCCBE2" transform="translate(158,76)"/>
<path d="M0 0 C0.680625 0.08765625 1.36125 0.1753125 2.0625 0.265625 C4 0.75 4 0.75 7 2.75 C6.01 4.07 5.02 5.39 4 6.75 C0.37 5.1 -3.26 3.45 -7 1.75 C-3.83050223 -0.36299851 -3.49404825 -0.50293119 0 0 Z " fill="#F7F7F5" transform="translate(129,161.25)"/>
<path d="M0 0 C2.92061185 2.62855067 4.86064962 5.72411973 7 9 C7.98866506 10.34175973 8.9838154 11.67896002 10 13 C8.02 13.33 6.04 13.66 4 14 C3.32739649 12.23141309 2.66211605 10.46003984 2 8.6875 C1.62875 7.70136719 1.2575 6.71523437 0.875 5.69921875 C0 3 0 3 0 0 Z " fill="#DA2D28" transform="translate(55,123)"/>
<path d="M0 0 C0.33 0.66 0.66 1.32 1 2 C0.22265625 3.9453125 0.22265625 3.9453125 -0.9375 6.125 C-1.31777344 6.84945312 -1.69804687 7.57390625 -2.08984375 8.3203125 C-2.39019531 8.87460938 -2.69054687 9.42890625 -3 10 C-3.88945312 9.73896484 -3.88945312 9.73896484 -4.796875 9.47265625 C-7.71946818 8.84564601 -10.09825758 9.40646178 -13 10 C-9.46416382 7.09556314 -9.46416382 7.09556314 -6.875 6.5625 C-4.8041234 6.18024259 -4.8041234 6.18024259 -3.9375 4.0625 C-3.628125 3.381875 -3.31875 2.70125 -3 2 C-2.01 1.34 -1.02 0.68 0 0 Z " fill="#3B5FB6" transform="translate(171,134)"/>
<path d="M0 0 C1.54305536 2.04966089 3.07528862 4.10417411 4.578125 6.18359375 C8.27741769 11.17072431 11.74910589 14.67800577 17 18 C16.34 18.33 15.68 18.66 15 19 C1.64081427 9.16251682 1.64081427 9.16251682 -1 1 C-0.67 0.67 -0.34 0.34 0 0 Z " fill="#F1D6D4" transform="translate(57,122)"/>
<path d="M0 0 C1.485 0.99 1.485 0.99 3 2 C3.0562279 4.96528179 2.95683804 7.68850026 2.6875 10.625 C2.62626953 11.42679688 2.56503906 12.22859375 2.50195312 13.0546875 C2.34851492 15.03758124 2.17604307 17.01898519 2 19 C-0.43444265 15.34833602 -1.13948113 12.85615571 -1.125 8.5625 C-1.12757812 7.80066406 -1.13015625 7.03882812 -1.1328125 6.25390625 C-1.00276015 4.04684141 -0.60856199 2.12030724 0 0 Z " fill="#ECC6C3" transform="translate(72,115)"/>
<path d="M0 0 C0.66 0 1.32 0 2 0 C2.33 1.65 2.66 3.3 3 5 C-2.16569441 6.79217969 -5.51053913 7.12029814 -11 6 C-9 4 -9 4 -5.5 3.5625 C-3.7675 3.2840625 -3.7675 3.2840625 -2 3 C-1.34 2.01 -0.68 1.02 0 0 Z " fill="#244EB3" transform="translate(129,155)"/>
<path d="M0 0 C1.74965358 -0.05429959 3.49979787 -0.09292823 5.25 -0.125 C6.22453125 -0.14820313 7.1990625 -0.17140625 8.203125 -0.1953125 C11.0196498 0.00137219 12.60949036 0.55431084 15 2 C9.10261508 4.29342747 4.33393082 5.34548714 -2 5 C-2.33 4.34 -2.66 3.68 -3 3 C0.96 3 4.92 3 9 3 C9 2.34 9 1.68 9 1 C6.03 1 3.06 1 0 1 C0 0.67 0 0.34 0 0 Z " fill="#1B48B4" transform="translate(135,158)"/>
<path d="M0 0 C1.70840281 1.63412443 2.93453047 2.86906094 4 5 C4.66 4.34 5.32 3.68 6 3 C6.12375 4.134375 6.2475 5.26875 6.375 6.4375 C6.684375 8.2009375 6.684375 8.2009375 7 10 C7.66 10.33 8.32 10.66 9 11 C9 12.65 9 14.3 9 16 C8.443125 15.195625 7.88625 14.39125 7.3125 13.5625 C4.78135513 10.75771784 3.67420866 10.30618405 0 10 C0 8.68 0 7.36 0 6 C0.66 6 1.32 6 2 6 C1.34 4.02 0.68 2.04 0 0 Z " fill="#A9BAD8" transform="translate(144,62)"/>
<path d="M0 0 C2.125 0.375 2.125 0.375 4 1 C3.67 1.99 3.34 2.98 3 4 C2.34 4 1.68 4 1 4 C-1.00698975 5.3227887 -3.00591923 6.65783025 -5 8 C-8.25 9.8125 -8.25 9.8125 -11 11 C-11.66 10.67 -12.32 10.34 -13 10 C-12.22914062 9.44570312 -11.45828125 8.89140625 -10.6640625 8.3203125 C-9.66117187 7.59585938 -8.65828125 6.87140625 -7.625 6.125 C-6.62726563 5.40570313 -5.62953125 4.68640625 -4.6015625 3.9453125 C-2.00530106 2.1005342 -2.00530106 2.1005342 0 0 Z " fill="#F4E5E4" transform="translate(88,72)"/>
<path d="M0 0 C0.66 0 1.32 0 2 0 C0.58832253 5.26170694 -1.74850232 8.72171358 -5 13 C-5.99 12.67 -6.98 12.34 -8 12 C-6.85573734 10.186508 -5.70954608 8.37423275 -4.5625 6.5625 C-3.60537109 5.04849609 -3.60537109 5.04849609 -2.62890625 3.50390625 C-1 1 -1 1 0 0 Z " fill="#1C49B2" transform="translate(143,144)"/>
<path d="M0 0 C0.7945524 2.30725794 1.15994803 3.5508436 0.328125 5.88671875 C-0.02765625 6.48097656 -0.3834375 7.07523437 -0.75 7.6875 C-1.09546875 8.28949219 -1.4409375 8.89148438 -1.796875 9.51171875 C-3 11 -3 11 -6 12 C-6.66 12.66 -7.32 13.32 -8 14 C-7.46719784 9.77510398 -6.12321801 7.45919284 -3.4375 4.1875 C-2.47650391 3.00220703 -2.47650391 3.00220703 -1.49609375 1.79296875 C-1.00238281 1.20128906 -0.50867188 0.60960937 0 0 Z " fill="#D7211D" transform="translate(74,62)"/>
<path d="M0 0 C0.33 0 0.66 0 1 0 C1 5.94 1 11.88 1 18 C-0.32 18 -1.64 18 -3 18 C-3.625 16.1875 -3.625 16.1875 -4 14 C-3.34 13.01 -2.68 12.02 -2 11 C-1.67 11.33 -1.34 11.66 -1 12 C-0.67 8.04 -0.34 4.08 0 0 Z " fill="#DC443F" transform="translate(62,85)"/>
<path d="M0 0 C2.875 -0.1875 2.875 -0.1875 6 0 C6.66 0.99 7.32 1.98 8 3 C7.01 3 6.02 3 5 3 C8.3 3.66 11.6 4.32 15 5 C14.67 5.66 14.34 6.32 14 7 C10.53283176 7.42455121 7.98768533 7.63494057 4.9765625 5.69921875 C3.22128319 4.19827583 1.55578118 2.70710336 0 1 C0 0.67 0 0.34 0 0 Z " fill="#1E4AB1" transform="translate(128,70)"/>
<path d="M0 0 C0 0.99 0 1.98 0 3 C-2.6848477 4.75547734 -3.92002215 5.00627277 -7.1875 4.75 C-8.115625 4.5025 -9.04375 4.255 -10 4 C-10.33 3.34 -10.66 2.68 -11 2 C-9.73392393 1.46770674 -8.46189588 0.94955456 -7.1875 0.4375 C-6.47980469 0.14746094 -5.77210937 -0.14257812 -5.04296875 -0.44140625 C-3 -1 -3 -1 0 0 Z " fill="#3157B4" transform="translate(110,163)"/>
<path d="M0 0 C2 0 2 0 3.69140625 1.64453125 C4.30886719 2.35996094 4.92632812 3.07539063 5.5625 3.8125 C6.18253906 4.52019531 6.80257812 5.22789062 7.44140625 5.95703125 C9 8 9 8 10 11 C9.01 10.67 8.02 10.34 7 10 C7 9.34 7 8.68 7 8 C6.34 8 5.68 8 5 8 C4.67 8.66 4.34 9.32 4 10 C3.32845067 8.71086513 2.66291141 7.41859796 2 6.125 C1.62875 5.40570313 1.2575 4.68640625 0.875 3.9453125 C0 2 0 2 0 0 Z " fill="#D82925" transform="translate(82,136)"/>
<path d="M0 0 C1.32 0 2.64 0 4 0 C4 0.66 4 1.32 4 2 C4.66 2.33 5.32 2.66 6 3 C3 6 0 9 -3 12 C-3.66 11.67 -4.32 11.34 -5 11 C-4.175 10.236875 -3.35 9.47375 -2.5 8.6875 C0.34055197 6.24565858 0.34055197 6.24565858 0 3 C-0.99 3.495 -0.99 3.495 -2 4 C-1.34 2.68 -0.68 1.36 0 0 Z " fill="#96ADD5" transform="translate(162,128)"/>
<path d="M0 0 C0.66 0 1.32 0 2 0 C4.03078144 4.41474227 5.32365924 8.15289123 6 13 C6.33 13.66 6.66 14.32 7 15 C6.39421747 17.01927511 5.73080266 19.02253397 5 21 C4.67 21 4.34 21 4 21 C3.96261719 20.10796875 3.92523438 19.2159375 3.88671875 18.296875 C3.82097656 17.12640625 3.75523437 15.9559375 3.6875 14.75 C3.62949219 13.58984375 3.57148438 12.4296875 3.51171875 11.234375 C2.96907257 7.80451976 2.10379314 6.63961177 0 4 C0 2.68 0 1.36 0 0 Z " fill="#C6D4E3" transform="translate(158,94)"/>
<path d="M0 0 C4.17576168 0.68416434 7.88080407 2.01365009 11.8125 3.5625 C13.55466797 4.24505859 13.55466797 4.24505859 15.33203125 4.94140625 C16.21246094 5.29074219 17.09289062 5.64007813 18 6 C13.9154674 7.72251754 10.63026304 6.07280563 6.75 4.5625 C6.1003125 4.31951172 5.450625 4.07652344 4.78125 3.82617188 C3.18383183 3.22714006 1.59139406 2.61485679 0 2 C0 1.34 0 0.68 0 0 Z " fill="#EFCCCB" transform="translate(66,145)"/>
<path d="M0 0 C3.82524236 1.450954 5.19090966 3.38181932 7 7 C7 7.66 7 8.32 7 9 C6.01 9 5.02 9 4 9 C3.67 9.99 3.34 10.98 3 12 C2.86722656 11.38511719 2.73445313 10.77023438 2.59765625 10.13671875 C2.42105469 9.32847656 2.24445312 8.52023438 2.0625 7.6875 C1.88847656 6.88699219 1.71445312 6.08648437 1.53515625 5.26171875 C1.00113841 2.854599 1.00113841 2.854599 0 0 Z " fill="#DB322F" transform="translate(50,93)"/>
<path d="M0 0 C0.66 0 1.32 0 2 0 C2.33 0.66 2.66 1.32 3 2 C5.02463255 2.65213292 5.02463255 2.65213292 7 3 C6.34 4.65 5.68 6.3 5 8 C1.125 6.125 1.125 6.125 0 5 C-0.04063832 3.33382885 -0.042721 1.66611905 0 0 Z " fill="#E04B48" transform="translate(87,144)"/>
<path d="M0 0 C1.32 0 2.64 0 4 0 C4.33 1.65 4.66 3.3 5 5 C4.01 5.66 3.02 6.32 2 7 C1.01 6.34 0.02 5.68 -1 5 C-0.67 3.35 -0.34 1.7 0 0 Z " fill="#6A89C6" transform="translate(151,137)"/>
<path d="M0 0 C0.99 0.99 1.98 1.98 3 3 C2.66226563 3.49628906 2.32453125 3.99257812 1.9765625 4.50390625 C-0.94601488 8.95534637 -2.81021767 12.80822254 -4 18 C-4.33 18 -4.66 18 -5 18 C-5.49456314 13.05436862 -4.3260355 10.13034294 -1.97265625 5.9296875 C-0.98177096 3.96383475 -0.45337523 2.1475669 0 0 Z " fill="#F1D4D2" transform="translate(75,62)"/>
<path d="M0 0 C1 2 1 2 0.3125 4.4375 C-1.10829685 7.21143671 -2.39746148 8.35172561 -5 10 C-5.33 9.01 -5.66 8.02 -6 7 C-4.78515625 5.17578125 -4.78515625 5.17578125 -3.0625 3.3125 C-2.49660156 2.68988281 -1.93070312 2.06726563 -1.34765625 1.42578125 C-0.90292969 0.95527344 -0.45820312 0.48476562 0 0 Z " fill="#DF1511" transform="translate(75,90)"/>
<path d="M0 0 C4.00180712 1.77858094 6.76459712 3.15013949 9 7 C9 7.66 9 8.32 9 9 C5.18063472 7.44396229 2.73955562 5.04395069 0 2 C0 1.34 0 0.68 0 0 Z " fill="#1644B1" transform="translate(151,82)"/>
<path d="M0 0 C3.78834395 1.26278132 4.22011278 2.52112952 6 6 C6.6875 8.3125 6.6875 8.3125 7 10 C5.0625 9.1875 5.0625 9.1875 3 8 C2.67 7.01 2.34 6.02 2 5 C1.01 4.34 0.02 3.68 -1 3 C-0.67 2.01 -0.34 1.02 0 0 Z " fill="#4567BC" transform="translate(151,69)"/>
<path d="M0 0 C1.98 0.495 1.98 0.495 4 1 C4.33 2.65 4.66 4.3 5 6 C3.125 6.625 3.125 6.625 1 7 C0.34 6.34 -0.32 5.68 -1 5 C-0.625 2.375 -0.625 2.375 0 0 Z " fill="#6988C8" transform="translate(153,145)"/>
<path d="M0 0 C1.9375 0.75 1.9375 0.75 4 2 C4.75 4.125 4.75 4.125 5 6 C5.763125 6.103125 6.52625 6.20625 7.3125 6.3125 C10.22636046 7.05790616 11.02950397 7.84458939 13 10 C4.04438343 7.81850365 4.04438343 7.81850365 1.4375 3.875 C0 1 0 1 0 0 Z " fill="#1C4AAF" transform="translate(146,86)"/>
<path d="M0 0 C0.66 0.66 1.32 1.32 2 2 C0.3125 3.125 0.3125 3.125 -2 4 C-4.6875 3.25 -4.6875 3.25 -7 2 C-7.33 1.34 -7.66 0.68 -8 0 C-5.09288879 -1.4535556 -3.10402897 -0.71133997 0 0 Z " fill="#DA3A35" transform="translate(120,161)"/>
<path d="M0 0 C0.66 0.33 1.32 0.66 2 1 C2.1875 3.375 2.1875 3.375 2 6 C1.01 6.66 0.02 7.32 -1 8 C-1.72382467 10.05925139 -1.72382467 10.05925139 -2 12 C-2.66 12 -3.32 12 -4 12 C-3.67 9.36 -3.34 6.72 -3 4 C-2.34 4 -1.68 4 -1 4 C-0.67 2.68 -0.34 1.36 0 0 Z " fill="#2E57B4" transform="translate(162,122)"/>
<path d="M0 0 C2.31 0 4.62 0 7 0 C7.33 1.32 7.66 2.64 8 4 C7.01 4.33 6.02 4.66 5 5 C4.34 5.66 3.68 6.32 3 7 C2.01 4.69 1.02 2.38 0 0 Z " fill="#ECEFF3" transform="translate(152,117)"/>
<path d="M0 0 C1.6415049 3.2830098 0.51888624 6.42545033 0 10 C-0.33 9.34 -0.66 8.68 -1 8 C-2.32 8.33 -3.64 8.66 -5 9 C-3.7508258 5.54074837 -2.32472205 2.85306797 0 0 Z " fill="#DA302D" transform="translate(74,100)"/>
<path d="M0 0 C0.99 0.33 1.98 0.66 3 1 C3.73046875 3.06640625 3.73046875 3.06640625 4.1875 5.5625 C4.34605469 6.38878906 4.50460938 7.21507813 4.66796875 8.06640625 C4.77753906 8.70449219 4.88710937 9.34257813 5 10 C4.34 9.67 3.68 9.34 3 9 C3 8.34 3 7.68 3 7 C2.01 6.67 1.02 6.34 0 6 C0 4.02 0 2.04 0 0 Z " fill="#F0C528" transform="translate(111,88)"/>
<path d="M0 0 C0 4.38968456 -2.12805101 5.76905739 -5 9 C-7 6 -7 6 -7 4 C-4.69 2.68 -2.38 1.36 0 0 Z " fill="#D82E2A" transform="translate(97,61)"/>
<path d="M0 0 C-0.25 1.875 -0.25 1.875 -1 4 C-2.8125 5.3125 -2.8125 5.3125 -5 6 C-7.25 5.625 -7.25 5.625 -9 5 C-3.375 0 -3.375 0 0 0 Z " fill="#1548B4" transform="translate(166,135)"/>
<path d="M0 0 C0.99 0.33 1.98 0.66 3 1 C2.4140625 7.15234375 2.4140625 7.15234375 2 9 C1.01 9.495 1.01 9.495 0 10 C0 6.7 0 3.4 0 0 Z " fill="#1142B0" transform="translate(155,125)"/>
<path d="M0 0 C3.3 1.65 6.6 3.3 10 5 C6.68756695 5.82810826 4.34023421 6.09278428 1 6 C1 5.01 1 4.02 1 3 C0.67 2.01 0.34 1.02 0 0 Z " fill="#1F4DB2" transform="translate(135,68)"/>
<path d="M0 0 C0.33 0.99 0.66 1.98 1 3 C-0.21484375 5.26171875 -0.21484375 5.26171875 -1.9375 7.6875 C-2.50339844 8.49574219 -3.06929687 9.30398437 -3.65234375 10.13671875 C-4.09707031 10.75160156 -4.54179687 11.36648437 -5 12 C-5.33 11.01 -5.66 10.02 -6 9 C-4.1875 6 -4.1875 6 -2 3 C-1.34 2.01 -0.68 1.02 0 0 Z " fill="#0B40AF" transform="translate(139,144)"/>
<path d="M0 0 C0.66 1.32 1.32 2.64 2 4 C2.99 3.67 3.98 3.34 5 3 C5 4.32 5 5.64 5 7 C2.03 6.505 2.03 6.505 -1 6 C-1.042721 4.33388095 -1.04063832 2.66617115 -1 1 C-0.67 0.67 -0.34 0.34 0 0 Z " fill="#3858B4" transform="translate(166,92)"/>
<path d="M0 0 C0 4.30269952 -2.2009571 5.8677377 -5 9 C-5.66 9.66 -6.32 10.32 -7 11 C-7.66 10.34 -8.32 9.68 -9 9 C-6.03 6.03 -3.06 3.06 0 0 Z " fill="#EBCBC9" transform="translate(80,90)"/>
<path d="M0 0 C0.33 0.99 0.66 1.98 1 3 C1.66 3.33 2.32 3.66 3 4 C2.67 4.66 2.34 5.32 2 6 C-1.0625 6.625 -1.0625 6.625 -4 7 C-2.79618552 4.50638429 -1.54571278 2.31856917 0 0 Z " fill="#6C89C4" transform="translate(142,150)"/>
<path d="M0 0 C0.99 0.33 1.98 0.66 3 1 C1.38405168 3.04119788 -0.2856382 5.04072937 -2 7 C-2.66 7 -3.32 7 -4 7 C-3.43628586 3.73045798 -2.50037734 2.17424117 0 0 Z " fill="#1043B0" transform="translate(169,103)"/>
<path d="M0 0 C0 2.31 0 4.62 0 7 C-1.32 6.67 -2.64 6.34 -4 6 C-3.625 3.5625 -3.625 3.5625 -3 1 C-1 0 -1 0 0 0 Z " fill="#214BB6" transform="translate(154,130)"/>
<path d="M0 0 C0.33 0 0.66 0 1 0 C1.22786458 2.01822917 1.45572917 4.03645833 1.68359375 6.0546875 C1.91292961 8.07404316 1.91292961 8.07404316 3 10 C2.01 10.99 1.02 11.98 0 13 C-0.19658808 11.58456585 -0.38187546 10.16755969 -0.5625 8.75 C-0.66691406 7.96109375 -0.77132812 7.1721875 -0.87890625 6.359375 C-1.00027349 3.99467126 -0.69633257 2.2488963 0 0 Z " fill="#4060B2" transform="translate(163,95)"/>
<path d="M0 0 C0.33 0 0.66 0 1 0 C1.33 2.31 1.66 4.62 2 7 C0.0625 6.6875 0.0625 6.6875 -2 6 C-2.33 5.01 -2.66 4.02 -3 3 C-2.34 3 -1.68 3 -1 3 C-0.67 2.01 -0.34 1.02 0 0 Z " fill="#1A4BB2" transform="translate(151,74)"/>
<path d="M0 0 C2.9719385 1.12451727 5.33440687 2.22293791 8 4 C6.02 4.99 6.02 4.99 4 6 C2.62437146 4.71034824 1.29233607 3.37310707 0 2 C0 1.34 0 0.68 0 0 Z " fill="#D9332F" transform="translate(63,145)"/>
<path d="M0 0 C0.33 0.66 0.66 1.32 1 2 C-3.75 6.875 -3.75 6.875 -6 8 C-4.52307692 2.33846154 -4.52307692 2.33846154 -1.875 0.625 C-0.946875 0.315625 -0.946875 0.315625 0 0 Z " fill="#4566B4" transform="translate(141,141)"/>
<path d="M0 0 C2.43840236 2.43840236 3.62292893 4.85240898 5 8 C4.67 8.66 4.34 9.32 4 10 C-0.60921053 4.64736842 -0.60921053 4.64736842 -1 1 C-0.67 0.67 -0.34 0.34 0 0 Z " fill="#EFD7D5" transform="translate(82,138)"/>
<path d="M0 0 C0.33 0.99 0.66 1.98 1 3 C-0.28650706 3.69710731 -1.57940665 4.38242876 -2.875 5.0625 C-3.95394531 5.63677734 -3.95394531 5.63677734 -5.0546875 6.22265625 C-5.69664063 6.47917969 -6.33859375 6.73570313 -7 7 C-7.66 6.67 -8.32 6.34 -9 6 C-6.03 4.02 -3.06 2.04 0 0 Z " fill="#ECCEC9" transform="translate(84,76)"/>
<path d="M0 0 C-0.66 1.32 -1.32 2.64 -2 4 C-3.98 3.34 -5.96 2.68 -8 2 C-4.77208445 -0.1519437 -3.71599191 -0.20086443 0 0 Z " fill="#E3DDE0" transform="translate(130,161)"/>
<path d="M0 0 C2.31 0.66 4.62 1.32 7 2 C6.01 3.32 5.02 4.64 4 6 C2.62437146 4.71034824 1.29233607 3.37310707 0 2 C0 1.34 0 0.68 0 0 Z " fill="#DD1712" transform="translate(60,136)"/>
<path d="M0 0 C0.66 0.33 1.32 0.66 2 1 C1.67 4.63 1.34 8.26 1 12 C0.67 12 0.34 12 0 12 C-0.19573608 10.56359829 -0.38127816 9.12580496 -0.5625 7.6875 C-0.66691406 6.88699219 -0.77132812 6.08648437 -0.87890625 5.26171875 C-1 3 -1 3 0 0 Z " fill="#DE120E" transform="translate(70,114)"/>
<path d="M0 0 C2.01136276 2.55991624 3.62845496 5.04590299 5 8 C2.11562221 6.70700306 0.12780579 5.34058637 -2 3 C-1.34 2.01 -0.68 1.02 0 0 Z " fill="#EFD6D3" transform="translate(55,109)"/>
<path d="M0 0 C-0.3125 1.875 -0.3125 1.875 -1 4 C-1.99 4.66 -2.98 5.32 -4 6 C-4.33 5.01 -4.66 4.02 -5 3 C-2.25 0 -2.25 0 0 0 Z " fill="#DB1E19" transform="translate(77,84)"/>
<path d="M0 0 C0.66 0.33 1.32 0.66 2 1 C1.67 3.31 1.34 5.62 1 8 C-1 6 -1 6 -1.1875 3.4375 C-1 1 -1 1 0 0 Z " fill="#DE1A18" transform="translate(67,77)"/>
<path d="M0 0 C2.4375 1.1875 2.4375 1.1875 3.4375 3.1875 C-2.3125 2.4375 -2.3125 2.4375 -4.5625 0.1875 C-2.5625 -0.8125 -2.5625 -0.8125 0 0 Z " fill="#DB130F" transform="translate(110.5625,160.8125)"/>
<path d="M0 0 C0.66 0 1.32 0 2 0 C1.39816251 2.02045442 0.72693904 4.02111039 0 6 C-0.99 6.495 -0.99 6.495 -2 7 C-2.33 6.01 -2.66 5.02 -3 4 C-1.6875 1.8125 -1.6875 1.8125 0 0 Z " fill="#0E40B5" transform="translate(143,144)"/>
<path d="M0 0 C2.0625 0.75 2.0625 0.75 4 2 C4.33 2.99 4.66 3.98 5 5 C4.01 4.67 3.02 4.34 2 4 C2 3.34 2 2.68 2 2 C1.34 2 0.68 2 0 2 C-0.33 2.66 -0.66 3.32 -1 4 C-1.33 3.01 -1.66 2.02 -2 1 C-1.34 0.67 -0.68 0.34 0 0 Z " fill="#DC1814" transform="translate(87,142)"/>
<path d="M0 0 C1.32 0 2.64 0 4 0 C4.33 0.99 4.66 1.98 5 3 C3.35 3.66 1.7 4.32 0 5 C0 3.35 0 1.7 0 0 Z " fill="#DE2822" transform="translate(54,102)"/>
<path d="M0 0 C1.485 0.99 1.485 0.99 3 2 C3.1875 5.625 3.1875 5.625 3 9 C1.22293791 6.33440687 0.12451727 3.9719385 -1 1 C-0.67 0.67 -0.34 0.34 0 0 Z " fill="#1143AD" transform="translate(146,61)"/>
</svg>
